<?xml version="1.0" standalone="no"?>
<!DOCTYPE svg PUBLIC "-//W3C//DTD SVG 20010904//EN"
 "http://www.w3.org/TR/2001/REC-SVG-20010904/DTD/svg10.dtd">
<svg version="1.0" xmlns="http://www.w3.org/2000/svg"
 width="980.000000pt" height="980.000000pt" viewBox="0 0 980.000000 980.000000"
 preserveAspectRatio="xMidYMid meet">
<metadata>
Created by potrace 1.11, written by Peter Selinger 2001-2013
</metadata>
<g transform="translate(0.000000,980.000000) scale(0.100000,-0.100000)"
fill="#000000" stroke="none">
<path d="M427 9372 c-235 -235 -427 -432 -427 -437 0 -6 452 -462 1005 -1015
l1005 -1005 -397 -397 -398 -398 1233 0 1232 0 0 1232 0 1233 -398 -398 -397
-397 -1005 1005 c-553 553 -1009 1005 -1015 1005 -6 0 -202 -192 -438 -428z"/>
<path d="M7920 8795 l-1005 -1005 -397 397 -398 398 0 -1233 0 -1232 1232 0
1233 0 -398 398 -397 397 1005 1005 c553 553 1005 1009 1005 1015 0 13 -852
865 -865 865 -6 0 -462 -452 -1015 -1005z"/>
<path d="M1613 3282 l397 -397 -1005 -1005 c-553 -553 -1005 -1009 -1005
-1015 0 -13 852 -865 865 -865 6 0 462 452 1015 1005 l1005 1005 397 -397 398
-398 0 1233 0 1232 -1232 0 -1233 0 398 -398z"/>
<path d="M6120 2448 l0 -1233 398 398 397 397 1005 -1005 c553 -553 1009
-1005 1015 -1005 13 0 865 852 865 865 0 6 -452 462 -1005 1015 l-1005 1005
397 397 398 398 -1233 0 -1232 0 0 -1232z"/>
</g>
</svg>
